# xmcd
#
# Track frame offsets:
# 150
# 15224
# 28101
# 42228
# 56886
# 71578
# 85700
# 100630
# 115516
# 131019
# 145477
# 160026
# 175453
# 189816
# 217282
# 225889
#
# Disc length: 3012 seconds
#
#
# Revision: 0
# Processed by: cddbd v1.5.1PL2 Copyright (c) Steve Scherf et al.
# Submitted via: FreeRIP 2.945 
#
DISCID=ce0bc210
DTITLE=Edson and Hudson - Duas Vidas, Dois Amores
DYEAR=2006
DGENRE=Country
TTITLE0=01 - Eu Não Sei Dizer Que Eu Não Te Amo
TTITLE1=02 - Hoje Eu Posso Chorar
TTITLE2=03 - Assovia
TTITLE3=04 - Duas Vidas, Dois Amores
TTITLE4=05 - Hei Você Ai
TTITLE5=06 - Ela Encasquetou
TTITLE6=07 - Para Sempre (Pra Siempre)
TTITLE7=08 - Eu nunca amei uma mulher assim
TTITLE8=09 - Que amor é esse
TTITLE9=10 - Nem Ilusão
TTITLE10=11 - Foi Deus
TTITLE11=12 - A Gente Vai
TTITLE12=13 - Perdoa-me (Te echo de menos)
TTITLE13=14 - Esqueça que eu te amo
TTITLE14=faixa-15
TTITLE15=faixa-16
EXTD=
EXTT0=
EXTT1=
EXTT2=
EXTT3=
EXTT4=
EXTT5=
EXTT6=
EXTT7=
EXTT8=
EXTT9=
EXTT10=
EXTT11=
EXTT12=
EXTT13=
EXTT14=
EXTT15=
PLAYORDER=
